<svg xmlns="http://www.w3.org/2000/svg" width="100" height="71.53176517256536" viewBox="0 0 100 61.69406320244565" class="css-1j8o68f">
    <defs id="SvgjsDefs2511"></defs>
    <g id="SvgjsG2512" featurekey="symbolFeature-0" transform="matrix(1.2642225275480465,0,0,1.2642225275480465,-10.745891484158395,-29.835652132396522)" fill="#9c5df9">
        <path xmlns="http://www.w3.org/2000/svg" d="M63.4,51.8c0,0.2,0.1,0.4,0.2,0.5c0.3,0.3,0.7,0.3,1,0c2.4-2.4,2.4-6.3,0-8.7c-0.1-0.1-0.3-0.2-0.5-0.2  c-0.2,0-0.4,0.1-0.5,0.2s-0.2,0.3-0.2,0.5c0,0.2,0.1,0.4,0.2,0.5c1.9,1.9,1.9,4.9,0,6.7C63.5,51.5,63.4,51.7,63.4,51.8z"></path>
        <path xmlns="http://www.w3.org/2000/svg" d="M70.5,58.9c0,0.2,0.1,0.4,0.2,0.5c0.3,0.3,0.7,0.3,1,0c3-3,4.7-7.1,4.7-11.4s-1.7-8.3-4.7-11.4c-0.1-0.1-0.3-0.2-0.5-0.2  c-0.2,0-0.4,0.1-0.5,0.2s-0.2,0.3-0.2,0.5c0,0.2,0.1,0.4,0.2,0.5c5.7,5.7,5.7,15,0,20.8C70.5,58.5,70.5,58.7,70.5,58.9z"></path>
        <path xmlns="http://www.w3.org/2000/svg" d="M79.6,28.6c-0.1-0.1-0.3-0.2-0.5-0.2c-0.2,0-0.4,0.1-0.5,0.2c-0.1,0.1-0.2,0.3-0.2,0.5s0.1,0.4,0.2,0.5  c10.1,10.1,10.1,26.6,0,36.8c-0.1,0.1-0.2,0.3-0.2,0.5s0.1,0.4,0.2,0.5c0.3,0.3,0.7,0.3,1,0c5.2-5.2,8-12,8-19.3  C87.6,40.7,84.8,33.8,79.6,28.6z"></path>
        <path xmlns="http://www.w3.org/2000/svg" d="M9.4,55c2.4,7.9,8.6,14.1,16.4,16.4c-2.5-2.4-4.6-6-6-10.4C15.4,59.7,11.8,57.6,9.4,55z"></path>
        <path xmlns="http://www.w3.org/2000/svg" d="M19.2,37.3C13.2,39.4,9,43,8.5,47H18C18,43.5,18.5,40.3,19.2,37.3z"></path>
        <path xmlns="http://www.w3.org/2000/svg" d="M19.2,58.7c-0.7-3-1.1-6.3-1.2-9.7H8.5C9,53,13.2,56.6,19.2,58.7z"></path>
        <path xmlns="http://www.w3.org/2000/svg" d="M31.9,23.6c-4,0.6-7.6,4.7-9.7,10.7c3-0.7,6.3-1.1,9.7-1.2V23.6z"></path>
        <path xmlns="http://www.w3.org/2000/svg" d="M20,47h11.9V35.1c-3.8,0.1-7.3,0.6-10.4,1.5C20.6,39.7,20,43.2,20,47z"></path>
        <path xmlns="http://www.w3.org/2000/svg" d="M25.8,24.5C18,26.9,11.8,33.1,9.4,41c2.4-2.5,6-4.6,10.4-6C21.2,30.5,23.3,26.9,25.8,24.5z"></path>
        <path xmlns="http://www.w3.org/2000/svg" d="M21.4,59.4c3.1,0.9,6.7,1.4,10.4,1.5V49H20C20,52.8,20.6,56.3,21.4,59.4z"></path>
        <path xmlns="http://www.w3.org/2000/svg" d="M33.9,23.6v9.5c3.5,0.1,6.7,0.5,9.7,1.2C41.4,28.3,37.9,24.2,33.9,23.6z"></path>
        <path xmlns="http://www.w3.org/2000/svg" d="M33.9,72.4c4-0.6,7.6-4.7,9.7-10.7c-3,0.7-6.3,1.1-9.7,1.2V72.4z"></path>
        <path xmlns="http://www.w3.org/2000/svg" d="M39.9,24.5c2.5,2.4,4.6,6,6,10.4c4.4,1.4,8.1,3.5,10.4,6C54,33.1,47.8,26.9,39.9,24.5z"></path>
        <path xmlns="http://www.w3.org/2000/svg" d="M39.9,71.5C47.8,69.1,54,62.9,56.4,55c-2.4,2.5-6,4.6-10.4,6C44.5,65.5,42.5,69.1,39.9,71.5z"></path>
        <path xmlns="http://www.w3.org/2000/svg" d="M46.6,37.3c0.7,3,1.1,6.3,1.2,9.7h9.5C56.7,43,52.6,39.4,46.6,37.3z"></path>
        <path xmlns="http://www.w3.org/2000/svg" d="M47.8,49c-0.1,3.5-0.5,6.7-1.2,9.7c6-2.2,10.1-5.7,10.7-9.7H47.8z"></path>
        <path xmlns="http://www.w3.org/2000/svg" d="M31.9,72.4v-9.5c-3.5-0.1-6.7-0.5-9.7-1.2C24.3,67.7,27.8,71.8,31.9,72.4z"></path>
        <path xmlns="http://www.w3.org/2000/svg" d="M33.9,47h11.9c-0.1-3.8-0.6-7.3-1.5-10.4c-3.1-0.9-6.7-1.4-10.4-1.5V47z"></path>
        <path xmlns="http://www.w3.org/2000/svg" d="M33.9,60.9c3.8-0.1,7.3-0.6,10.4-1.5c0.9-3.1,1.4-6.7,1.5-10.4H33.9V60.9z"></path>
    </g>
</svg>
